<svg width="582" height="111" viewBox="0 0 582 111" fill="none" xmlns="http://www.w3.org/2000/svg">
<g clip-path="url(#clip0_6_44)">
<g opacity="0.97">
<path d="M49.8424 20.6534C42.2948 20.6541 35.0641 23.5827 29.7387 28.7826C24.414 33.9817 21.4295 41.0248 21.4287 48.3613V101.039H0.564148V48.3606C0.565658 35.5776 5.76706 23.3263 15.0119 14.2986C24.2559 5.27231 36.7848 0.207077 49.8416 0.205566C62.8992 0.205566 75.4301 5.27005 84.6753 14.2971C93.9216 23.3248 99.1235 35.5769 99.125 48.3606V101.039H78.2608V48.3613C78.2598 41.0248 75.2745 33.981 69.9492 28.7818C64.6229 23.5812 57.3901 20.6534 49.8424 20.6534Z" fill="#1F2B29"/>
<path d="M159.035 84.3064C151.487 84.3049 144.257 81.3764 138.931 76.1765C133.606 70.9771 130.622 63.9344 130.621 56.5977V3.91968H109.757V56.5982C109.758 69.3816 114.959 81.6327 124.204 90.6603C133.448 99.6868 145.977 104.752 159.034 104.753C172.091 104.753 184.623 99.6888 193.868 90.6618C203.114 81.6342 208.316 69.3821 208.317 56.5982V3.91968H187.453V56.5977C187.452 63.9344 184.467 70.9781 179.141 76.177C173.815 81.3779 166.582 84.3054 159.035 84.3064Z" fill="#1F2B29"/>
<path d="M532.157 84.3064C524.611 84.3049 517.376 81.3764 512.052 76.1765C506.729 70.9771 503.744 63.9344 503.744 56.5977V3.91968H482.877V56.5982C482.879 69.3816 488.08 81.6327 497.325 90.6603C506.569 99.6868 519.097 104.752 532.157 104.753C545.211 104.753 557.744 99.6888 566.986 90.6618C576.233 81.6342 581.436 69.3821 581.436 56.5982V3.91968H560.574V56.5977C560.574 63.9344 557.589 70.9781 552.261 76.177C546.937 81.3779 539.707 84.3054 532.157 84.3064Z" fill="#1F2B29"/>
<path d="M422.97 20.6534C415.421 20.6534 408.19 23.5812 402.864 28.7818C397.539 33.981 394.554 41.0248 394.553 48.3613V101.039H373.688V48.3606C373.69 35.5769 378.892 23.3248 388.138 14.2971C397.383 5.27005 409.913 0.205566 422.97 0.205566C436.026 0.207077 448.558 5.27231 457.801 14.2986C467.046 23.3263 472.248 35.5776 472.249 48.3606V101.039H451.385V48.3629C451.383 41.0264 448.399 33.9817 443.075 28.7826C437.75 23.5827 430.517 20.6541 422.97 20.6534Z" fill="#1F2B29"/>
<path d="M277.713 20.4471C256.605 20.4471 239.81 34.829 239.81 54.355C239.81 74.4049 254.91 84.6853 268.324 84.6853C281.589 84.6853 296.664 74.5946 296.664 56.23H317.529C317.529 87.96 290.876 105.132 268.324 105.132C244.53 105.132 218.945 86.786 218.945 54.355C218.945 21.4008 247.389 0 277.713 0C323.996 0 363.465 44.9345 363.465 101.042H342.601C342.601 52.8709 309.323 20.4471 277.713 20.4471Z" fill="#1F2B29"/>
</g>
</g>
<defs>
<clipPath id="clip0_6_44">
<rect width="582" height="110.379" fill="white"/>
</clipPath>
</defs>
</svg>
