<svg width="15" height="15" viewBox="0 0 15 15" fill="none" xmlns="http://www.w3.org/2000/svg">
<path d="M14.8604 0.13867C14.9265 0.204896 14.9717 0.28909 14.9904 0.380792C15.0091 0.472495 15.0004 0.567665 14.9655 0.65448L9.40782 14.5498C9.35884 14.6722 9.27706 14.7787 9.17147 14.8576C9.06588 14.9364 8.94057 14.9847 8.80935 14.9969C8.67812 15.0091 8.54607 14.9849 8.42771 14.927C8.30935 14.869 8.20928 14.7795 8.13851 14.6683L5.10326 9.89703L0.332612 6.86139C0.22117 6.79069 0.131425 6.69057 0.0732777 6.57209C0.0151305 6.4536 -0.00915758 6.32135 0.00309342 6.18993C0.0153444 6.05852 0.0636583 5.93304 0.142704 5.82734C0.221749 5.72165 0.328453 5.63985 0.451042 5.59097L14.3446 0.0345528C14.4315 -0.000395966 14.5266 -0.00906895 14.6183 0.00961118C14.71 0.0282913 14.7942 0.0735013 14.8604 0.139625V0.13867ZM6.05643 9.61811L8.69342 13.7618L13.2138 2.45981L6.05643 9.61811ZM12.5386 1.78449L1.23803 6.30546L5.38214 8.94183L12.5386 1.78449Z" fill="#F1ECE4"/>
</svg>
