<svg width="37" height="37" viewBox="0 0 37 37" fill="none" xmlns="http://www.w3.org/2000/svg">
<rect width="36.125" height="36.125" rx="18.0625" fill="#1F2B29"/>
<path d="M11.3438 26.125C11.3438 26.125 10 26.125 10 24.7812C10 23.4375 11.3438 19.4062 18.0625 19.4062C24.7812 19.4062 26.125 23.4375 26.125 24.7812C26.125 26.125 24.7812 26.125 24.7812 26.125H11.3438ZM18.0625 18.0625C19.1317 18.0625 20.157 17.6378 20.913 16.8818C21.669 16.1258 22.0938 15.1004 22.0938 14.0312C22.0938 12.9621 21.669 11.9367 20.913 11.1807C20.157 10.4247 19.1317 10 18.0625 10C16.9933 10 15.968 10.4247 15.212 11.1807C14.456 11.9367 14.0312 12.9621 14.0312 14.0312C14.0312 15.1004 14.456 16.1258 15.212 16.8818C15.968 17.6378 16.9933 18.0625 18.0625 18.0625Z" fill="#F1ECE4"/>
</svg>
